<?xml version="1.0" encoding="utf-8"?>
<!-- Generator: Adobe Illustrator 18.0.0, SVG Export Plug-In . SVG Version: 6.00 Build 0)  -->
<!DOCTYPE svg PUBLIC "-//W3C//DTD SVG 1.1//EN" "http://www.w3.org/Graphics/SVG/1.1/DTD/svg11.dtd">
<svg version="1.1" id="Logo" xmlns="http://www.w3.org/2000/svg" xmlns:xlink="http://www.w3.org/1999/xlink" x="0px" y="0px"
	 viewBox="0 0 42.5 24.4" enable-background="new 0 0 42.5 24.4" xml:space="preserve">
<path fill="#F99F3D" d="M34.9,3.1l-2.2-2.2C32,0.3,31.2,0,30.3,0c-0.8,0-1.6,0.3-2.2,0.8l-5.8,5.8l4.6,4.6l2.2-2.2c0,0,0,0,0,0
	c0.3-0.3,0.8-0.5,1.2-0.5c0.5,0,0.9,0.2,1.2,0.5c0,0,0,0,0,0l2.1,2.1c0,0,0,0,0,0c0.3,0.3,0.5,0.8,0.5,1.2c0,0.5-0.2,0.9-0.5,1.2
	c0,0,0,0,0,0l-2.1,2.1c0,0,0,0,0,0c-0.3,0.3-0.8,0.5-1.2,0.5c-0.5,0-0.9-0.2-1.2-0.5L16.7,3.1l0,0l-2.3-2.3C13.8,0.3,13,0,12.2,0
	c-0.9,0-1.7,0.3-2.3,0.9L7.6,3.1l0,0L3.1,7.7l0,0l-2,2c0,0,0,0,0,0c-0.6,0.6-1,1.5-1,2.5c0,1,0.4,1.9,1,2.5c0,0,0,0,0,0l6.6,6.6l0,0
	l2,2c0,0,0,0,0,0c0.6,0.6,1.5,1,2.5,1c1,0,1.9-0.4,2.5-1c0,0,0,0,0,0l5.5-5.5l-4.6-4.6l-2.2,2.2c0,0,0,0,0,0
	c-0.3,0.3-0.8,0.5-1.2,0.5s-0.9-0.2-1.2-0.5c0,0,0,0,0,0l-2.1-2.1c0,0,0,0,0,0c-0.3-0.3-0.5-0.8-0.5-1.2c0-0.5,0.2-0.9,0.5-1.2
	c0,0,0,0,0,0l2.1-2.1c0,0,0,0,0,0c0.3-0.3,0.8-0.5,1.2-0.5c0.5,0,0.9,0.2,1.2,0.5l12.4,12.4l0,0l2,2c0,0,0,0,0,0
	c0.6,0.6,1.5,1,2.5,1c1,0,1.9-0.4,2.5-1c0,0,0,0,0,0l6.6-6.6l0,0l2.1-2.1c0,0,0,0,0,0c0.6-0.6,1-1.5,1-2.5c0-0.8-0.3-1.6-0.8-2.2
	L34.9,3.1L34.9,3.1z"/>
</svg>
